<?xml version="1.0" encoding="UTF-8"?>
<svg xmlns="http://www.w3.org/2000/svg"
     viewBox="0 0 1400 600"
     width="1400" height="600"
     preserveAspectRatio="xMidYMid slice"
     role="img" aria-labelledby="title desc">
  <title id="title">Padrão de engrenagens Mavien</title>
  <desc id="desc">Composição vetorial de engrenagens em tons de azul e ciano, estilo corporativo e sutil.</desc>

  <defs>
    <!-- Paleta A: gradientes e cores -->
    <linearGradient id="bgGrad" x1="0" y1="0" x2="1" y2="1">
      <stop offset="0%" stop-color="#001F3F"/>
      <stop offset="100%" stop-color="#0052CC"/>
    </linearGradient>

    <linearGradient id="gearBlue" x1="0" y1="0" x2="0" y2="1">
      <stop offset="0%" stop-color="#1e6fb8"/>
      <stop offset="100%" stop-color="#33A1FF"/>
    </linearGradient>

    <linearGradient id="gearCyan" x1="0" y1="0" x2="0" y2="1">
      <stop offset="0%" stop-color="#4fc3ff"/>
      <stop offset="100%" stop-color="#33A1FF"/>
    </linearGradient>

    <filter id="softShadow" x="-50%" y="-50%" width="200%" height="200%">
      <feDropShadow dx="0" dy="10" stdDeviation="20" flood-color="#00263a" flood-opacity="0.2"/>
    </filter>

    <!-- Definição de um dente (unitário) para reutilizar -->
    <rect id="tooth" x="-6" y="-48" width="12" height="24" rx="2" ry="2" />

    <!-- Símbolo base de engrenagem: círculo + dentes (os dentes são desenhados ao instanciar) -->
    <g id="gear-base">
      <circle cx="0" cy="0" r="48" fill="none" stroke="rgba(255,255,255,0.06)" stroke-width="6"/>
      <circle cx="0" cy="0" r="36" fill="rgba(255,255,255,0.03)"/>
      <circle cx="0" cy="0" r="18" fill="white" opacity="0.06"/>
    </g>
  </defs>

  <!-- Fundo (transparente visualmente, mas com leve barra) -->
  <rect width="1400" height="600" fill="transparent" />

  <!-- Grupo de engrenagens - esquerda -->
  <g transform="translate(170,320) scale(1.6)" filter="url(#softShadow)" opacity="0.95">
    <!-- grande -->
    <g transform="rotate(-8)">
      <g fill="url(#gearBlue)" stroke="#063352" stroke-width="2">
        <!-- dentes: 12 dentes -->
        <!-- instanciando dentes por rotação -->
        <g>
          <use href="#tooth" transform="rotate(0)" />
          <use href="#tooth" transform="rotate(30)" />
          <use href="#tooth" transform="rotate(60)" />
          <use href="#tooth" transform="rotate(90)" />
          <use href="#tooth" transform="rotate(120)" />
          <use href="#tooth" transform="rotate(150)" />
          <use href="#tooth" transform="rotate(180)" />
          <use href="#tooth" transform="rotate(210)" />
          <use href="#tooth" transform="rotate(240)" />
          <use href="#tooth" transform="rotate(270)" />
          <use href="#tooth" transform="rotate(300)" />
          <use href="#tooth" transform="rotate(330)" />
        </g>
        <!-- corpo -->
        <use href="#gear-base" />
      </g>

      <!-- centro decorativo -->
      <circle cx="0" cy="0" r="10" fill="#063352" />
      <circle cx="0" cy="0" r="6" fill="#33A1FF" />
    </g>
  </g>

  <!-- Grupo de engrenagens - centro direito -->
  <g transform="translate(520,260) scale(1.1)" filter="url(#softShadow)">
    <g transform="rotate(14)">
      <g fill="url(#gearCyan)" stroke="#044b6b" stroke-width="1.6">
        <!-- dentes: 10 dentes (maior proximidade) -->
        <g>
          <use href="#tooth" transform="rotate(0) scale(0.95) translate(0,-6)" />
          <use href="#tooth" transform="rotate(36) scale(0.95) translate(0,-6)" />
          <use href="#tooth" transform="rotate(72) scale(0.95) translate(0,-6)" />
          <use href="#tooth" transform="rotate(108) scale(0.95) translate(0,-6)" />
          <use href="#tooth" transform="rotate(144) scale(0.95) translate(0,-6)" />
          <use href="#tooth" transform="rotate(180) scale(0.95) translate(0,-6)" />
          <use href="#tooth" transform="rotate(216) scale(0.95) translate(0,-6)" />
          <use href="#tooth" transform="rotate(252) scale(0.95) translate(0,-6)" />
          <use href="#tooth" transform="rotate(288) scale(0.95) translate(0,-6)" />
          <use href="#tooth" transform="rotate(324) scale(0.95) translate(0,-6)" />
        </g>
        <use href="#gear-base" transform="scale(0.85)" />
      </g>

      <circle cx="0" cy="0" r="8" fill="#033a57" />
      <circle cx="0" cy="0" r="4" fill="#bfeaff" />
    </g>
  </g>

  <!-- Grupo de engrenagens - direita -->
  <g transform="translate(980,320) scale(1.35)" filter="url(#softShadow)">
    <g transform="rotate(-20)">
      <g fill="url(#gearBlue)" stroke="#03293d" stroke-width="1.8">
        <!-- dentes: 12 dentes, mais esguios -->
        <g>
          <use href="#tooth" transform="rotate(0) scale(0.85) translate(0,-4)" />
          <use href="#tooth" transform="rotate(30) scale(0.85) translate(0,-4)" />
          <use href="#tooth" transform="rotate(60) scale(0.85) translate(0,-4)" />
          <use href="#tooth" transform="rotate(90) scale(0.85) translate(0,-4)" />
          <use href="#tooth" transform="rotate(120) scale(0.85) translate(0,-4)" />
          <use href="#tooth" transform="rotate(150) scale(0.85) translate(0,-4)" />
          <use href="#tooth" transform="rotate(180) scale(0.85) translate(0,-4)" />
          <use href="#tooth" transform="rotate(210) scale(0.85) translate(0,-4)" />
          <use href="#tooth" transform="rotate(240) scale(0.85) translate(0,-4)" />
          <use href="#tooth" transform="rotate(270) scale(0.85) translate(0,-4)" />
          <use href="#tooth" transform="rotate(300) scale(0.85) translate(0,-4)" />
          <use href="#tooth" transform="rotate(330) scale(0.85) translate(0,-4)" />
        </g>
        <use href="#gear-base" transform="scale(1.05)" />
      </g>

      <circle cx="0" cy="0" r="10" fill="#042d4b" />
      <circle cx="0" cy="0" r="5" fill="#e6f9ff" />
    </g>
  </g>

  <!-- Pequenas engrenagens e elementos decorativos (assinatura de composto) -->
  <g opacity="0.95">
    <g transform="translate(360,420) scale(0.5)">
      <g fill="#2c6fb2" stroke="#072b44" stroke-width="1">
        <use href="#gear-base" />
        <use href="#tooth" transform="rotate(0) translate(0,-48)"/>
        <use href="#tooth" transform="rotate(60) translate(0,-48)"/>
        <use href="#tooth" transform="rotate(120) translate(0,-48)"/>
        <use href="#tooth" transform="rotate(180) translate(0,-48)"/>
      </g>
    </g>

    <g transform="translate(720,460) scale(0.45)">
      <g fill="#2fb0e8" stroke="#03445e" stroke-width="1">
        <use href="#gear-base" />
        <use href="#tooth" transform="rotate(0) translate(0,-48)"/>
        <use href="#tooth" transform="rotate(72) translate(0,-48)"/>
        <use href="#tooth" transform="rotate(144) translate(0,-48)"/>
      </g>
    </g>

    <g transform="translate(1120,480) scale(0.35)">
      <g fill="#2b79b5" stroke="#052a3c" stroke-width="1">
        <use href="#gear-base" />
        <use href="#tooth" transform="rotate(0) translate(0,-48)"/>
        <use href="#tooth" transform="rotate(90) translate(0,-48)"/>
      </g>
    </g>
  </g>

  <!-- Leve decore com linhas horizontais sutis -->
  <g stroke="rgba(50,120,200,0.06)" stroke-width="6">
    <line x1="0" y1="520" x2="1400" y2="520" />
  </g>
</svg>
